<svg width="760" height="420" viewBox="0 0 760 420" fill="none" xmlns="http://www.w3.org/2000/svg">
  <rect width="760" height="420" rx="20" fill="#EDF2F7"/>
  <rect x="28" y="24" width="704" height="372" rx="18" fill="#FFFFFF" stroke="#D8DEE8"/>
  <rect x="28" y="24" width="704" height="48" rx="18" fill="#F7F9FC"/>
  <circle cx="58" cy="48" r="7" fill="#EE6A5F"/>
  <circle cx="82" cy="48" r="7" fill="#F5BD4F"/>
  <circle cx="106" cy="48" r="7" fill="#61C554"/>
  <rect x="138" y="38" width="214" height="20" rx="10" fill="#E8EEF5"/>
  <rect x="58" y="96" width="202" height="14" rx="7" fill="#D1DCE9"/>
  <rect x="58" y="132" width="644" height="220" rx="14" fill="#FBFCFE" stroke="#E6EBF2"/>
  <rect x="80" y="156" width="106" height="10" rx="5" fill="#B8C8D9"/>
  <rect x="228" y="156" width="70" height="10" rx="5" fill="#D7E1EE"/>
  <rect x="370" y="156" width="82" height="10" rx="5" fill="#D7E1EE"/>
  <rect x="544" y="156" width="90" height="10" rx="5" fill="#D7E1EE"/>
  <rect x="80" y="190" width="600" height="1" fill="#E9EDF3"/>
  <rect x="80" y="224" width="600" height="1" fill="#E9EDF3"/>
  <rect x="80" y="258" width="600" height="1" fill="#E9EDF3"/>
  <rect x="80" y="292" width="600" height="1" fill="#E9EDF3"/>
  <rect x="80" y="176" width="104" height="10" rx="5" fill="#B8C8D9"/>
  <rect x="228" y="176" width="46" height="10" rx="5" fill="#D7E1EE"/>
  <rect x="370" y="176" width="58" height="10" rx="5" fill="#D7E1EE"/>
  <rect x="544" y="176" width="64" height="10" rx="5" fill="#BFE2CF"/>
  <rect x="68" y="205" width="626" height="26" rx="13" fill="#FFF5C8" stroke="#E8D77B" stroke-width="2"/>
  <rect x="80" y="213" width="118" height="10" rx="5" fill="#98B1CA"/>
  <rect x="228" y="213" width="52" height="10" rx="5" fill="#C8D6E4"/>
  <rect x="370" y="213" width="56" height="10" rx="5" fill="#C8D6E4"/>
  <rect x="544" y="213" width="88" height="10" rx="5" fill="#7CC59B"/>
  <path d="M680 118L700 138" stroke="#D24435" stroke-width="6" stroke-linecap="round"/>
  <path d="M700 118L680 138" stroke="#D24435" stroke-width="6" stroke-linecap="round"/>
  <path d="M650 90C650 90 614 86 598 112" stroke="#D24435" stroke-width="4" stroke-linecap="round"/>
</svg>
